<svg xmlns="http://www.w3.org/2000/svg" viewBox="0 0 60 60"><path d="M34 12V8c0-2.21-1.79-4-4-4s-4 1.79-4 4v4.072" fill="none" stroke="#DC9628" stroke-width="2" stroke-linecap="round" stroke-linejoin="round" stroke-miterlimit="10"/><path d="M16.49 50.638c10.702 1.847 16.66 1.847 27.36 0L53.34 49c-4.684-4.657-7.316-10.415-7.316-17v-9c.038-6.047-3.957-10.478-7.946-12.3-5-2.286-10.815-2.295-15.806.007C18.32 12.53 14.038 16.957 14 23v9c0 6.585-2.315 12.343-7 17l9.49 1.638z" fill="#EEAF4B"/><path d="M19 25.99h-.006c-.552-.003-.997-.453-.994-1.005.03-4.682 3.752-7.643 5.948-8.654 3.85-1.774 8.594-1.77 12.47 0 .5.228.722.82.493 1.324-.228.502-.82.724-1.325.493-3.354-1.533-7.47-1.537-10.8 0-1.766.814-4.76 3.173-4.784 6.85-.003.55-.45.994-1 .994z" fill="#FBD490"/><path d="M21.906 51.46C23.35 54.728 26.508 57 30.183 57c3.676 0 6.834-2.273 8.278-5.543-5.927.752-10.63.753-16.554.003z" fill="#DC9628"/><path d="M4.095 39.967c-.256 0-.512-.098-.707-.293C1.203 37.49 0 34.58 0 31.484c0-3.1 1.203-6.007 3.388-8.19.39-.392 1.023-.392 1.414 0s.39 1.022 0 1.413C2.995 26.514 2 28.92 2 31.483c0 2.563.995 4.97 2.802 6.776.39.39.39 1.022 0 1.413-.196.196-.45.294-.707.294z" fill="#F2ECBF"/><path d="M8.305 37.69c-.256 0-.512-.098-.707-.293-3.337-3.337-3.337-8.768 0-12.104.39-.39 1.023-.39 1.414 0s.39 1.023 0 1.414c-2.558 2.558-2.558 6.72 0 9.276.39.39.39 1.023 0 1.414-.195.196-.45.293-.707.293zM55.905 39.967c-.256 0-.512-.098-.707-.293-.39-.39-.39-1.023 0-1.414C57.005 36.452 58 34.046 58 31.483c0-2.563-.995-4.97-2.802-6.776-.39-.39-.39-1.023 0-1.414s1.023-.39 1.414 0C58.797 25.478 60 28.386 60 31.483c0 3.097-1.203 6.006-3.388 8.19-.195.196-.45.294-.707.294z" fill="#F2ECBF"/><path d="M51.695 37.69c-.256 0-.512-.098-.707-.293-.39-.39-.39-1.023 0-1.414 2.558-2.558 2.558-6.72 0-9.276-.39-.39-.39-1.023 0-1.414s1.023-.39 1.414 0c3.337 3.337 3.337 8.768 0 12.104-.195.196-.45.293-.707.293z" fill="#F2ECBF"/></svg>