<svg xmlns="http://www.w3.org/2000/svg" viewBox="0 0 56 56"><path fill="#4B6DAA" d="M40.5 0h14v36h-14z"/><circle cx="47.5" cy="9" r="4" fill="#D8A852"/><path d="M2.5 30c0 2.21 1.79 4 4 4h15.602l-.988 4.62c-.754 3.523-.552 7.818-.104 10.835.448 3.017 3.15 6.545 5.977 6.545h.24c2.41 0 3.273-2.66 3.273-6 0-16.25 8-16 8-16h2V2h-29c-2.21 0-4 1.79-4 4s1.79 4 4 4h-3c-2.21 0-4 1.79-4 4s1.79 4 4 4h-3c-2.21 0-4 1.79-4 4 0 2.493 1.613 3.442 4 3.796 1.163.173 3.276.204 4 .204h-3c-2.21 0-4 1.79-4 4z" fill="#FBCE9D"/><path d="M19.5 10c0-.553-.448-1-1-1H8.88c.703.615 1.613 1 2.62 1h-3c-1.008 0-1.917.385-2.62 1H18.5c.552 0 1-.447 1-1zM16.5 17H5.88c.703.615 1.613 1 2.62 1h-3c-1.008 0-1.917.385-2.62 1H16.5c.552 0 1-.447 1-1s-.448-1-1-1zM16.5 25H3.044c.657.403 1.488.653 2.456.796 1.163.173 3.276.204 4 .204h-3c-1.008 0-1.917.385-2.62 1H16.5c.552 0 1-.447 1-1s-.448-1-1-1z" fill="#F7B563"/></svg>