<svg xmlns="http://www.w3.org/2000/svg" viewBox="0 0 58 58"><path fill="#EDEADA" d="M51.5 14l-14-14h-31v58h45"/><path fill="#CEC9AE" d="M37.5 0v14h14"/><g fill="#CEC9AE"><path d="M15.5 16h9c.553 0 1-.447 1-1s-.447-1-1-1h-9c-.553 0-1 .447-1 1s.447 1 1 1zM15.5 24h5c.553 0 1-.447 1-1s-.447-1-1-1h-5c-.553 0-1 .447-1 1s.447 1 1 1zM37.5 22h-7c-.553 0-1 .447-1 1s.447 1 1 1h7c.553 0 1-.447 1-1s-.447-1-1-1zM24.79 22.3c-.19.18-.29.44-.29.7 0 .26.1.52.29.71.19.18.45.29.71.29s.52-.1.71-.3c.18-.18.29-.44.29-.7 0-.26-.11-.52-.29-.71-.38-.37-1.05-.37-1.42.01zM43.21 22.29c-.38-.37-1.04-.37-1.42 0-.18.19-.29.45-.29.71 0 .26.11.52.29.71.19.18.45.29.71.29s.52-.11.71-.29c.18-.19.29-.45.29-.71 0-.26-.11-.52-.29-.71zM27.5 30h-7c-.553 0-1 .447-1 1s.447 1 1 1h7c.553 0 1-.447 1-1s-.447-1-1-1zM14.79 30.29c-.19.19-.29.44-.29.71 0 .26.11.52.29.71.19.18.45.29.71.29s.52-.11.71-.29c.19-.19.29-.45.29-.71 0-.26-.1-.52-.29-.71-.38-.37-1.04-.37-1.42 0z"/></g><g fill="#7383BF"><path d="M18.645 39.166c-2.19 1.14-2.928 3.32-3.196 5.582-.415-.347-.83-.693-1.242-1.04-.98-.822-2.404.585-1.414 1.415l2.806 2.35c.662.556 1.676.212 1.707-.706.073-2.167.177-4.743 2.348-5.873 1.144-.596.132-2.322-1.01-1.728zM27.983 44.25c-.52-.93-1.642-1.39-2.688-1.095-1.365.386-2.98 2.042-3.936.106-.572-1.156-2.296-.142-1.728 1.01.514 1.042 1.5 1.798 2.67 1.932.606.07 1.116-.013 1.687-.226.405-.152 1.922-1.332 2.266-.717.63 1.125 2.357.116 1.727-1.01z"/></g><path d="M40.045 29.09c.326.915 1.37 1.35 2.25.93 1.392-.66 2.846.792 2.184 2.186-.418.877.015 1.923.93 2.25 1.454.516 1.454 2.572 0 3.09-.915.325-1.35 1.37-.93 2.248.66 1.393-.792 2.847-2.186 2.185-.877-.418-1.923.015-2.25.93-.516 1.454-2.572 1.454-3.09 0-.325-.915-1.37-1.35-2.248-.93-1.393.66-2.847-.792-2.185-2.186.418-.877-.015-1.923-.93-2.25-1.454-.516-1.454-2.572 0-3.09.915-.325 1.35-1.37.93-2.248-.66-1.393.792-2.847 2.186-2.185.877.418 1.923-.015 2.25-.93.516-1.453 2.572-1.453 3.09 0z" fill="#EBBA16"/><path d="M42.294 41.98c-.878-.418-1.923.015-2.25.93-.516 1.454-2.572 1.454-3.09 0-.325-.916-1.37-1.35-2.248-.93-.07.032-.137.037-.206.06V53l4-4 4 4V42.04c-.07-.023-.137-.03-.206-.06z" fill="#D75A4A"/></svg>