<svg xmlns="http://www.w3.org/2000/svg" viewBox="0 0 58 58"><circle cx="29" cy="29" r="29" fill="#25AE88"/><path d="M52.932 45.376C52.275 38.986 46.876 34 40.312 34h-5.947C33.61 34 33 33.39 33 32.635v-.645c0-.583.38-1.082.925-1.287C39.73 28.52 43.703 19 42.895 12.27 42.136 5.92 36.97.8 30.616.09c-.518-.058-1.03-.086-1.536-.088h-.05C21.286-.017 15 6.257 15 14c0 6.024 3.807 14.755 9.145 16.73.523.192.855.712.855 1.27v.635C25 33.39 24.39 34 23.635 34H17.69c-6.566 0-11.965 4.985-12.622 11.376C10.293 52.998 19.06 58 29 58s18.707-5.002 23.932-12.624z" fill="#FBCE9D"/><path d="M33.492 6.61c3.715 1.02 7.213 3.306 9.453 6.322-.016-.22-.023-.447-.05-.663C42.136 5.92 36.97.8 30.616.09c-.518-.058-1.03-.086-1.536-.088h-.05c-6.92-.016-12.66 4.994-13.807 11.582h.005c.18.252.354.507.545.75.07-.087.14-.173.213-.258 2-2.38 5.34-2.93 8.183-1.67.864.38 1.822.594 2.83.594 2.942 0 5.456-1.818 6.492-4.39z" fill="#6B5B4B"/><path d="M52.932 45.376C52.275 38.986 46.876 34 40.312 34H37l-8 8-8-8h-3.31c-6.566 0-11.965 4.985-12.622 11.376C10.293 52.998 19.06 58 29 58s18.707-5.002 23.932-12.624z" fill="#556080"/><path d="M43 54.392c.685-.38 1.35-.79 2-1.22V47h-2v7.392zM15 54.392V47h-2v6.172c.65.43 1.315.84 2 1.22z" fill="#424A60"/></svg>