<svg xmlns="http://www.w3.org/2000/svg" viewBox="0 0 58 58"><path d="M12 0C9.694 0 7.78 1.758 7.53 4L7.5 5c0 2.2 1.8 4 4 4h6l2-4h12l-1.96 3.92c-.02.038.008.08.048.08H50.5V0H12z" fill="#EAD8BB"/><path d="M29.5 9v26.2c0 .506-.665.69-.925.257L23.5 27l-5.075 8.458c-.26.433-.925.25-.925-.256V9h-6c-2.2 0-4-1.8-4-4v48.958C7.5 56.19 9.31 58 11.542 58H50.5V9h-21z" fill="#6B4842"/><path d="M12.5 9h-1c-2.2 0-4-1.8-4-4v48.958C7.5 56.19 9.31 58 11.542 58h.958V9z" fill="#513531"/><path d="M50.5 2h-9c-.553 0-1 .447-1 1s.447 1 1 1h9V2zM50.5 5h-8c-.553 0-1 .447-1 1s.447 1 1 1h8V5z" fill="#D3BEA1"/><path d="M19.5 5l-2 4v26.2c0 .506.666.69.925.257L23.5 27l5.075 8.458c.26.433.925.25.925-.256V9l2-4h-12z" fill="#DD352E"/><path fill="#B02721" d="M19.5 5l-2 4h12l2-4"/></svg>